<svg width="24" height="25" viewBox="0 0 24 25" fill="none" xmlns="http://www.w3.org/2000/svg">
<path d="M12 2.46094C6.5 2.46094 2 6.95094 2 12.4809C2 17.4809 5.66 21.6309 10.44 22.3809V15.3809H7.9V12.4809H10.44V10.2709C10.44 7.76094 11.93 6.38094 14.22 6.38094C15.31 6.38094 16.45 6.57094 16.45 6.57094V9.04094H15.19C13.95 9.04094 13.56 9.81094 13.56 10.6009V12.4809H16.34L15.89 15.3809H13.56V22.3809C15.9164 22.0088 18.0622 20.8065 19.6099 18.991C21.1576 17.1755 22.0054 14.8666 22 12.4809C22 6.95094 17.5 2.46094 12 2.46094Z" fill="#FECC47"></path>
</svg>
