<svg width="24" height="25" viewBox="0 0 24 25" fill="none" xmlns="http://www.w3.org/2000/svg">
<path d="M7.8 2.4209H16.2C19.4 2.4209 22 5.0209 22 8.2209V16.6209C22 18.1592 21.3889 19.6344 20.3012 20.7221C19.2135 21.8098 17.7383 22.4209 16.2 22.4209H7.8C4.6 22.4209 2 19.8209 2 16.6209V8.2209C2 6.68264 2.61107 5.20739 3.69878 4.11968C4.78649 3.03197 6.26174 2.4209 7.8 2.4209ZM7.6 4.4209C6.64522 4.4209 5.72955 4.80018 5.05442 5.47531C4.37928 6.15044 4 7.06612 4 8.0209V16.8209C4 18.8109 5.61 20.4209 7.6 20.4209H16.4C17.3548 20.4209 18.2705 20.0416 18.9456 19.3665C19.6207 18.6914 20 17.7757 20 16.8209V8.0209C20 6.0309 18.39 4.4209 16.4 4.4209H7.6ZM17.25 5.9209C17.5815 5.9209 17.8995 6.05259 18.1339 6.28701C18.3683 6.52144 18.5 6.83938 18.5 7.1709C18.5 7.50242 18.3683 7.82036 18.1339 8.05478C17.8995 8.2892 17.5815 8.4209 17.25 8.4209C16.9185 8.4209 16.6005 8.2892 16.3661 8.05478C16.1317 7.82036 16 7.50242 16 7.1709C16 6.83938 16.1317 6.52144 16.3661 6.28701C16.6005 6.05259 16.9185 5.9209 17.25 5.9209ZM12 7.4209C13.3261 7.4209 14.5979 7.94768 15.5355 8.88536C16.4732 9.82305 17 11.0948 17 12.4209C17 13.747 16.4732 15.0188 15.5355 15.9564C14.5979 16.8941 13.3261 17.4209 12 17.4209C10.6739 17.4209 9.40215 16.8941 8.46447 15.9564C7.52678 15.0188 7 13.747 7 12.4209C7 11.0948 7.52678 9.82305 8.46447 8.88536C9.40215 7.94768 10.6739 7.4209 12 7.4209ZM12 9.4209C11.2044 9.4209 10.4413 9.73697 9.87868 10.2996C9.31607 10.8622 9 11.6252 9 12.4209C9 13.2165 9.31607 13.9796 9.87868 14.5422C10.4413 15.1048 11.2044 15.4209 12 15.4209C12.7956 15.4209 13.5587 15.1048 14.1213 14.5422C14.6839 13.9796 15 13.2165 15 12.4209C15 11.6252 14.6839 10.8622 14.1213 10.2996C13.5587 9.73697 12.7956 9.4209 12 9.4209Z" fill="#FECC47"></path>
</svg>
