<svg width="79" height="35" viewBox="0 0 79 35" fill="none" xmlns="http://www.w3.org/2000/svg">
        <path d="M14.2222 15.8338C18.9156 11.5671 21.3333 9.37688 21.3333 6.60355C21.3333 4.47022 19.5556 2.77777 17.4222 2.77777C16.1991 2.77777 15.0329 3.28977 14.2222 4.19999C13.4116 3.28977 12.2453 2.77777 10.9369 2.77777C8.80355 2.77777 7.11111 4.55555 7.11111 6.68888C7.11111 9.37688 9.52889 11.5671 14.2222 15.8338ZM13.056 17C8.78933 12.3067 6.59911 9.88888 3.82578 9.88888C1.69244 9.88888 0 11.6667 0 13.8C0 15.0231 0.512 16.1893 1.42222 17C0.512 17.8107 0 18.9769 0 20.2853C0 22.4187 1.77778 24.1111 3.91111 24.1111C6.59911 24.1111 8.78933 21.6933 13.056 17ZM15.4027 17C19.6551 21.6933 21.8453 24.1111 24.6187 24.1111C26.752 24.1111 28.4444 22.3333 28.4444 20.2C28.4444 18.9769 27.9324 17.8107 27.0222 17C27.9324 16.1893 28.4444 15.0231 28.4444 13.7147C28.4444 11.5813 26.6667 9.88888 24.5333 9.88888C21.8453 9.88888 19.6551 12.3067 15.4027 17ZM14.2222 18.1662C9.52889 22.4329 7.11111 24.6231 7.11111 27.3964C7.11111 29.5298 8.88889 31.2222 11.0222 31.2222C12.2453 31.2222 13.4116 30.7102 14.2222 29.8C15.0329 30.7102 16.1991 31.2222 17.5076 31.2222C19.6409 31.2222 21.3333 29.4444 21.3333 27.3111C21.3333 24.6231 18.9156 22.4329 14.2222 18.1662Z" fill="#FECC47"></path>
        <path d="M37.0187 8.98242L37.0363 6.5625H37.171C37.3351 7.17969 37.5304 7.66602 37.757 8.02148C38.1827 8.67773 38.7179 9.00586 39.3624 9.00586C39.8116 9.00586 40.1827 8.85547 40.4757 8.55469C40.7687 8.25391 40.9152 7.87305 40.9152 7.41211C40.9152 7.21289 40.882 7.00977 40.8156 6.80273C40.7531 6.5957 40.6671 6.41797 40.5577 6.26953C40.4445 6.11719 40.2843 5.9707 40.0773 5.83008C39.8741 5.68945 39.5616 5.51172 39.1398 5.29688C38.7687 5.10938 38.4835 4.95117 38.2843 4.82227C38.089 4.69336 37.9308 4.5625 37.8097 4.42969C37.4738 4.0625 37.3058 3.61523 37.3058 3.08789C37.3058 2.76367 37.3702 2.45117 37.4991 2.15039C37.632 1.84961 37.8156 1.5918 38.0499 1.37695C38.464 0.994141 38.9542 0.802734 39.5206 0.802734C39.7042 0.802734 39.8741 0.822266 40.0304 0.861328C40.1866 0.896484 40.3956 0.96875 40.6573 1.07812C40.8527 1.15625 40.9855 1.20703 41.0558 1.23047C41.1261 1.25 41.1886 1.25977 41.2433 1.25977C41.38 1.25977 41.4718 1.16016 41.5187 0.960938H41.6534L41.6945 3.28711H41.5597C41.4542 2.91602 41.3624 2.63281 41.2843 2.4375C41.2101 2.23828 41.1202 2.05469 41.0148 1.88672C40.8234 1.58203 40.6124 1.35742 40.382 1.21289C40.1515 1.06445 39.8859 0.990234 39.5851 0.990234C39.1476 0.990234 38.8019 1.13867 38.548 1.43555C38.4425 1.55664 38.3585 1.69922 38.296 1.86328C38.2374 2.02734 38.2081 2.19141 38.2081 2.35547C38.2081 3.00781 38.6281 3.5332 39.4679 3.93164L40.2941 4.33008C40.9308 4.63086 41.3898 4.96289 41.671 5.32617C41.9913 5.73242 42.1515 6.20508 42.1515 6.74414C42.1515 7.10352 42.0792 7.44727 41.9347 7.77539C41.7316 8.23242 41.4269 8.58594 41.0206 8.83594C40.6144 9.08203 40.1359 9.20508 39.5851 9.20508C39.0812 9.20508 38.5968 9.10547 38.132 8.90625C37.8898 8.80078 37.7452 8.74023 37.6984 8.72461C37.6515 8.70898 37.5988 8.70117 37.5402 8.70117C37.3527 8.70117 37.2238 8.79492 37.1534 8.98242H37.0187ZM47.8234 8.43164L47.923 8.49023C47.7823 8.90039 47.4601 9.10547 46.9562 9.10547C46.6788 9.10547 46.4484 9.03711 46.2648 8.90039C46.1437 8.81055 46.0187 8.6543 45.8898 8.43164C45.6281 8.66602 45.4308 8.82031 45.298 8.89453C45.0441 9.03516 44.7491 9.10547 44.4132 9.10547C43.9835 9.10547 43.6417 9.00195 43.3878 8.79492C43.1378 8.58789 43.0128 8.30859 43.0128 7.95703C43.0128 7.63281 43.1163 7.36133 43.3234 7.14258C43.4406 7.02148 43.5753 6.92578 43.7277 6.85547C43.88 6.78125 44.1007 6.70703 44.3898 6.63281C44.7296 6.54688 44.9796 6.47461 45.1398 6.41602C45.3038 6.35742 45.4406 6.28711 45.5499 6.20508C45.6749 6.11523 45.7609 6.00977 45.8077 5.88867C45.8546 5.76758 45.8781 5.59961 45.8781 5.38477C45.8781 4.92773 45.7921 4.59375 45.6202 4.38281C45.5421 4.28516 45.4406 4.20703 45.3156 4.14844C45.1945 4.08984 45.0675 4.06055 44.9347 4.06055C44.7745 4.06055 44.632 4.10156 44.507 4.18359C44.382 4.26562 44.2882 4.37891 44.2257 4.52344L44.0792 4.86328C44.0011 5.04688 43.8605 5.13867 43.6573 5.13867C43.5245 5.13867 43.4132 5.0957 43.3234 5.00977C43.2335 4.91992 43.1886 4.80859 43.1886 4.67578C43.1886 4.47656 43.3292 4.30859 43.6105 4.17188C43.7628 4.10156 43.9503 4.04492 44.173 4.00195C44.3995 3.95508 44.6202 3.93164 44.8351 3.93164C45.0773 3.93164 45.3292 3.96289 45.5909 4.02539C45.8527 4.08789 46.0714 4.16797 46.2472 4.26562C46.5011 4.41016 46.6593 4.59766 46.7218 4.82812C46.7531 4.94531 46.7687 5.14258 46.7687 5.41992V7.58789C46.7687 7.95508 46.7843 8.20508 46.8156 8.33789C46.882 8.61523 47.0421 8.75391 47.296 8.75391C47.4171 8.75391 47.5109 8.73242 47.5773 8.68945C47.6476 8.64648 47.7296 8.56055 47.8234 8.43164ZM45.8898 6.12305C45.6788 6.29883 45.4464 6.45312 45.1925 6.58594C44.9073 6.73828 44.7101 6.85352 44.6007 6.93164C44.4913 7.00977 44.3917 7.10352 44.3019 7.21289C44.1183 7.43945 44.0265 7.70312 44.0265 8.00391C44.0265 8.26172 44.0968 8.47461 44.2374 8.64258C44.382 8.81055 44.5636 8.89453 44.7823 8.89453C44.9738 8.89453 45.1534 8.83594 45.3214 8.71875C45.4933 8.59766 45.6222 8.4375 45.7081 8.23828C45.8292 7.97656 45.8898 7.59766 45.8898 7.10156V6.12305ZM49.171 5.8125C49.1554 6.00391 49.1476 6.14258 49.1476 6.22852C49.1476 6.56836 49.1964 6.90039 49.2941 7.22461C49.3956 7.54883 49.5323 7.81836 49.7042 8.0332C49.88 8.25195 50.0968 8.42383 50.3546 8.54883C50.6163 8.67383 50.8898 8.73633 51.1749 8.73633C51.3859 8.73633 51.5851 8.70117 51.7726 8.63086C51.964 8.56055 52.1222 8.46289 52.2472 8.33789C52.3878 8.20117 52.5089 7.98242 52.6105 7.68164L52.7277 7.72266C52.6261 8.17969 52.4073 8.52539 52.0714 8.75977C51.7394 8.99023 51.296 9.10547 50.7413 9.10547C50.2609 9.10547 49.8488 9.0293 49.505 8.87695C49.1613 8.72461 48.8702 8.49023 48.632 8.17383C48.2999 7.73242 48.1339 7.18945 48.1339 6.54492C48.1339 5.66602 48.4484 4.97656 49.0773 4.47656C49.5343 4.11328 50.0558 3.93164 50.6417 3.93164C50.9542 3.93164 51.2433 3.98828 51.5089 4.10156C51.7745 4.21094 51.9991 4.37109 52.1827 4.58203C52.4679 4.91016 52.6105 5.32031 52.6105 5.8125H49.171ZM51.7374 5.58398C51.7101 5.19336 51.6378 4.89258 51.5206 4.68164C51.4152 4.49023 51.2745 4.33984 51.0988 4.23047C50.923 4.11719 50.7355 4.06055 50.5363 4.06055C50.2003 4.06055 49.9054 4.20508 49.6515 4.49414C49.4015 4.7832 49.2531 5.14648 49.2062 5.58398H51.7374ZM54.8605 4.01953H56.3546V4.24219H54.8605V7.65234C54.8605 8.0625 54.9308 8.35547 55.0714 8.53125C55.1456 8.62891 55.2433 8.70508 55.3644 8.75977C55.4855 8.81445 55.6163 8.8418 55.757 8.8418C55.9327 8.8418 56.0792 8.80664 56.1964 8.73633C56.3136 8.66211 56.4425 8.5293 56.5831 8.33789L56.671 8.41406C56.5421 8.64844 56.3605 8.82227 56.1261 8.93555C55.8956 9.04883 55.6066 9.10547 55.2589 9.10547C54.798 9.10547 54.462 9.01562 54.2511 8.83594C54.1378 8.74219 54.0636 8.63086 54.0284 8.50195C53.9933 8.36914 53.9757 8.13281 53.9757 7.79297V4.24219H53.3488V4.14844C53.6027 4.06641 53.837 3.9082 54.0519 3.67383C54.1808 3.5293 54.2843 3.38672 54.3624 3.24609C54.4406 3.10156 54.5148 2.91602 54.5851 2.68945L54.6437 2.49609H54.8605V4.01953ZM61.4757 8.43164L61.5753 8.49023C61.4347 8.90039 61.1124 9.10547 60.6085 9.10547C60.3312 9.10547 60.1007 9.03711 59.9171 8.90039C59.796 8.81055 59.671 8.6543 59.5421 8.43164C59.2804 8.66602 59.0831 8.82031 58.9503 8.89453C58.6964 9.03516 58.4015 9.10547 58.0656 9.10547C57.6359 9.10547 57.2941 9.00195 57.0402 8.79492C56.7902 8.58789 56.6652 8.30859 56.6652 7.95703C56.6652 7.63281 56.7687 7.36133 56.9757 7.14258C57.0929 7.02148 57.2277 6.92578 57.38 6.85547C57.5323 6.78125 57.7531 6.70703 58.0421 6.63281C58.382 6.54688 58.632 6.47461 58.7921 6.41602C58.9562 6.35742 59.0929 6.28711 59.2023 6.20508C59.3273 6.11523 59.4132 6.00977 59.4601 5.88867C59.507 5.76758 59.5304 5.59961 59.5304 5.38477C59.5304 4.92773 59.4445 4.59375 59.2726 4.38281C59.1945 4.28516 59.0929 4.20703 58.9679 4.14844C58.8468 4.08984 58.7198 4.06055 58.587 4.06055C58.4269 4.06055 58.2843 4.10156 58.1593 4.18359C58.0343 4.26562 57.9406 4.37891 57.8781 4.52344L57.7316 4.86328C57.6534 5.04688 57.5128 5.13867 57.3097 5.13867C57.1769 5.13867 57.0656 5.0957 56.9757 5.00977C56.8859 4.91992 56.8409 4.80859 56.8409 4.67578C56.8409 4.47656 56.9816 4.30859 57.2628 4.17188C57.4152 4.10156 57.6027 4.04492 57.8253 4.00195C58.0519 3.95508 58.2726 3.93164 58.4874 3.93164C58.7296 3.93164 58.9816 3.96289 59.2433 4.02539C59.505 4.08789 59.7238 4.16797 59.8995 4.26562C60.1534 4.41016 60.3116 4.59766 60.3741 4.82812C60.4054 4.94531 60.421 5.14258 60.421 5.41992V7.58789C60.421 7.95508 60.4366 8.20508 60.4679 8.33789C60.5343 8.61523 60.6945 8.75391 60.9484 8.75391C61.0695 8.75391 61.1632 8.73242 61.2296 8.68945C61.2999 8.64648 61.382 8.56055 61.4757 8.43164ZM59.5421 6.12305C59.3312 6.29883 59.0988 6.45312 58.8448 6.58594C58.5597 6.73828 58.3624 6.85352 58.2531 6.93164C58.1437 7.00977 58.0441 7.10352 57.9542 7.21289C57.7706 7.43945 57.6788 7.70312 57.6788 8.00391C57.6788 8.26172 57.7491 8.47461 57.8898 8.64258C58.0343 8.81055 58.2159 8.89453 58.4347 8.89453C58.6261 8.89453 58.8058 8.83594 58.9738 8.71875C59.1456 8.59766 59.2745 8.4375 59.3605 8.23828C59.4816 7.97656 59.5421 7.59766 59.5421 7.10156V6.12305ZM63.298 4.66406C63.462 4.46094 63.6183 4.31055 63.7667 4.21289C64.0675 4.02148 64.4269 3.92578 64.8448 3.92578C65.4386 3.92578 65.9562 4.11523 66.3976 4.49414C66.9445 4.95898 67.2179 5.61523 67.2179 6.46289C67.2179 7.31055 66.9562 7.97852 66.4327 8.4668C65.9796 8.89258 65.3995 9.10547 64.6925 9.10547C64.3214 9.10547 64.007 9.05469 63.7491 8.95312L63.421 8.81836C63.3312 8.7832 63.2511 8.76562 63.1808 8.76562C62.9816 8.76562 62.8058 8.92773 62.6534 9.25195H62.4191V2.37891C62.4191 1.94141 62.3488 1.62891 62.2081 1.44141C62.0714 1.25 61.839 1.1543 61.5109 1.1543V1.01367L63.298 0.767578V4.66406ZM63.298 6.43945C63.298 6.85742 63.3214 7.24219 63.3683 7.59375C63.4152 7.94531 63.4757 8.20117 63.5499 8.36133C63.6398 8.55273 63.7726 8.70312 63.9484 8.8125C64.1281 8.92188 64.3312 8.97656 64.5577 8.97656C65.0343 8.97656 65.4269 8.75 65.7355 8.29688C66.048 7.84375 66.2042 7.26758 66.2042 6.56836C66.2042 6.20117 66.1534 5.85352 66.0519 5.52539C65.9503 5.19336 65.8058 4.91211 65.6183 4.68164C65.4698 4.49023 65.3058 4.3457 65.1261 4.24805C64.9464 4.14648 64.7628 4.0957 64.5753 4.0957C64.3488 4.0957 64.1378 4.16602 63.9425 4.30664C63.7472 4.44336 63.6027 4.62305 63.5089 4.8457C63.3683 5.17383 63.298 5.70508 63.298 6.43945ZM67.8038 4.13086L69.4855 3.91992V7.30664L69.4913 7.75195C69.4913 8.01758 69.507 8.21289 69.5382 8.33789C69.5695 8.45898 69.63 8.56055 69.7198 8.64258C69.8292 8.74805 70.0304 8.82812 70.3234 8.88281V9H67.7394V8.88281C67.9738 8.85156 68.1417 8.80859 68.2433 8.75391C68.3448 8.69531 68.4269 8.59766 68.4894 8.46094C68.5323 8.37109 68.5616 8.23633 68.5773 8.05664C68.5968 7.87305 68.6066 7.60938 68.6066 7.26562V5.81836C68.6066 5.41602 68.5968 5.13477 68.5773 4.97461C68.5577 4.81055 68.5148 4.67773 68.4484 4.57617C68.382 4.4668 68.3019 4.38867 68.2081 4.3418C68.1144 4.29102 67.9796 4.25977 67.8038 4.24805V4.13086ZM69.0226 1.82812C68.8702 1.82812 68.7433 1.7793 68.6417 1.68164C68.5441 1.58398 68.4952 1.46094 68.4952 1.3125C68.4952 1.16797 68.546 1.04688 68.6476 0.949219C68.7491 0.847656 68.8741 0.796875 69.0226 0.796875C69.171 0.796875 69.296 0.847656 69.3976 0.949219C69.4991 1.04688 69.5499 1.16797 69.5499 1.3125C69.5499 1.46094 69.4991 1.58398 69.3976 1.68164C69.2999 1.7793 69.1749 1.82812 69.0226 1.82812ZM71.0499 9V7.3418H71.1437C71.2531 7.74805 71.3898 8.07227 71.5538 8.31445C71.8546 8.75586 72.2062 8.97656 72.6085 8.97656C72.8546 8.97656 73.0675 8.90234 73.2472 8.75391C73.4425 8.58984 73.5402 8.35742 73.5402 8.05664C73.5402 7.81055 73.4698 7.5957 73.3292 7.41211C73.2511 7.31445 73.1515 7.22461 73.0304 7.14258C72.9132 7.06055 72.714 6.94531 72.4327 6.79688C71.9406 6.53516 71.6124 6.31641 71.4484 6.14062C71.214 5.89062 71.0968 5.60156 71.0968 5.27344C71.0968 4.92188 71.214 4.61914 71.4484 4.36523C71.7179 4.07617 72.0753 3.93164 72.5206 3.93164C72.7198 3.93164 72.9054 3.9668 73.0773 4.03711L73.2765 4.125C73.339 4.14844 73.3937 4.16016 73.4406 4.16016C73.5148 4.16016 73.5851 4.10156 73.6515 3.98438H73.7687L73.8331 5.31445H73.7101C73.6671 5.12695 73.6202 4.97656 73.5695 4.86328C73.5226 4.75 73.4542 4.64062 73.3644 4.53516C73.2433 4.38672 73.1027 4.27148 72.9425 4.18945C72.7823 4.10352 72.6241 4.06055 72.4679 4.06055C72.2491 4.06055 72.0616 4.14062 71.9054 4.30078C71.7531 4.45703 71.6769 4.65039 71.6769 4.88086C71.6769 5.07227 71.7452 5.24609 71.882 5.40234C72.0226 5.55469 72.2374 5.69531 72.5265 5.82422L73.1476 6.10547C73.5187 6.27344 73.796 6.48242 73.9796 6.73242C74.1632 6.98242 74.255 7.27734 74.255 7.61719C74.255 8.02734 74.1222 8.36719 73.8566 8.63672C73.5519 8.94922 73.1613 9.10547 72.6847 9.10547C72.4269 9.10547 72.1652 9.05469 71.8995 8.95312C71.7277 8.88672 71.6241 8.84961 71.589 8.8418C71.5538 8.83008 71.5089 8.82422 71.4542 8.82422C71.3175 8.82422 71.214 8.88281 71.1437 9H71.0499ZM37.0187 20.9824L37.0363 18.5625H37.171C37.3351 19.1797 37.5304 19.666 37.757 20.0215C38.1827 20.6777 38.7179 21.0059 39.3624 21.0059C39.8116 21.0059 40.1827 20.8555 40.4757 20.5547C40.7687 20.2539 40.9152 19.873 40.9152 19.4121C40.9152 19.2129 40.882 19.0098 40.8156 18.8027C40.7531 18.5957 40.6671 18.418 40.5577 18.2695C40.4445 18.1172 40.2843 17.9707 40.0773 17.8301C39.8741 17.6895 39.5616 17.5117 39.1398 17.2969C38.7687 17.1094 38.4835 16.9512 38.2843 16.8223C38.089 16.6934 37.9308 16.5625 37.8097 16.4297C37.4738 16.0625 37.3058 15.6152 37.3058 15.0879C37.3058 14.7637 37.3702 14.4512 37.4991 14.1504C37.632 13.8496 37.8156 13.5918 38.0499 13.377C38.464 12.9941 38.9542 12.8027 39.5206 12.8027C39.7042 12.8027 39.8741 12.8223 40.0304 12.8613C40.1866 12.8965 40.3956 12.9688 40.6573 13.0781C40.8527 13.1562 40.9855 13.207 41.0558 13.2305C41.1261 13.25 41.1886 13.2598 41.2433 13.2598C41.38 13.2598 41.4718 13.1602 41.5187 12.9609H41.6534L41.6945 15.2871H41.5597C41.4542 14.916 41.3624 14.6328 41.2843 14.4375C41.2101 14.2383 41.1202 14.0547 41.0148 13.8867C40.8234 13.582 40.6124 13.3574 40.382 13.2129C40.1515 13.0645 39.8859 12.9902 39.5851 12.9902C39.1476 12.9902 38.8019 13.1387 38.548 13.4355C38.4425 13.5566 38.3585 13.6992 38.296 13.8633C38.2374 14.0273 38.2081 14.1914 38.2081 14.3555C38.2081 15.0078 38.6281 15.5332 39.4679 15.9316L40.2941 16.3301C40.9308 16.6309 41.3898 16.9629 41.671 17.3262C41.9913 17.7324 42.1515 18.2051 42.1515 18.7441C42.1515 19.1035 42.0792 19.4473 41.9347 19.7754C41.7316 20.2324 41.4269 20.5859 41.0206 20.8359C40.6144 21.082 40.1359 21.2051 39.5851 21.2051C39.0812 21.2051 38.5968 21.1055 38.132 20.9062C37.8898 20.8008 37.7452 20.7402 37.6984 20.7246C37.6515 20.709 37.5988 20.7012 37.5402 20.7012C37.3527 20.7012 37.2238 20.7949 37.1534 20.9824H37.0187ZM47.0323 21.0996C46.9816 20.8652 46.9562 20.625 46.9562 20.3789C46.4679 20.8633 45.8898 21.1055 45.2218 21.1055C44.7335 21.1055 44.3409 20.9863 44.0441 20.748C43.755 20.5137 43.6105 20.1816 43.6105 19.752V17.7129L43.6046 17.2676C43.6046 17.002 43.589 16.8086 43.5577 16.6875C43.5265 16.5664 43.4679 16.4629 43.382 16.377C43.2687 16.2715 43.0656 16.1934 42.7726 16.1426V16.0195H44.4894V18.9902C44.4894 19.4082 44.5031 19.7188 44.5304 19.9219C44.5616 20.1211 44.6163 20.2852 44.6945 20.4141C44.7804 20.5469 44.9034 20.6523 45.0636 20.7305C45.2238 20.8047 45.4034 20.8418 45.6027 20.8418C45.8214 20.8418 46.0265 20.7988 46.2179 20.7129C46.4093 20.627 46.5597 20.5098 46.6691 20.3613C46.7823 20.209 46.8566 20.0332 46.8917 19.834C46.9308 19.6348 46.9503 19.3066 46.9503 18.8496V17.7012L46.9445 17.2676C46.9445 17.002 46.9288 16.8086 46.8976 16.6875C46.8702 16.5664 46.8116 16.4629 46.7218 16.377C46.6124 16.2715 46.4093 16.1934 46.1124 16.1426V16.0195H47.8292V19.2012C47.8292 19.6035 47.839 19.8867 47.8585 20.0508C47.882 20.2109 47.9249 20.3418 47.9874 20.4434C48.0577 20.5527 48.1398 20.6328 48.2335 20.6836C48.3273 20.7305 48.462 20.7598 48.6378 20.7715V20.8887L47.0323 21.0996ZM50.6241 15.9316C50.6945 16.2051 50.7394 16.4766 50.7589 16.7461C51.005 16.4844 51.2804 16.2832 51.5851 16.1426C51.8937 16.002 52.214 15.9316 52.546 15.9316C52.9132 15.9316 53.2198 16.0254 53.4659 16.2129C53.6144 16.3262 53.7843 16.5234 53.9757 16.8047C54.2726 16.5039 54.5714 16.2832 54.8722 16.1426C55.173 16.002 55.4972 15.9316 55.8448 15.9316C56.3136 15.9316 56.6945 16.0605 56.9874 16.3184C57.2843 16.5723 57.4327 16.9062 57.4327 17.3203V19.3066L57.4386 19.752C57.4386 20.0176 57.4542 20.2129 57.4855 20.3379C57.5167 20.459 57.5753 20.5605 57.6613 20.6426C57.7745 20.748 57.9777 20.8281 58.2706 20.8828V21H55.6866V20.8828C55.921 20.8516 56.087 20.8086 56.1847 20.7539C56.2863 20.6953 56.3702 20.5977 56.4366 20.4609C56.4796 20.3711 56.5089 20.2363 56.5245 20.0566C56.5441 19.873 56.5538 19.6113 56.5538 19.2715V18.1523C56.5538 17.7188 56.5402 17.4023 56.5128 17.2031C56.4855 17.0039 56.4327 16.834 56.3546 16.6934C56.171 16.3613 55.8546 16.1953 55.4054 16.1953C54.921 16.1953 54.5695 16.375 54.3507 16.7344C54.1593 17.043 54.0636 17.5234 54.0636 18.1758V19.3066L54.0695 19.752C54.0695 20.0176 54.0851 20.2129 54.1163 20.3379C54.1476 20.459 54.2062 20.5605 54.2921 20.6426C54.4015 20.748 54.6046 20.8281 54.9015 20.8828V21H52.3175V20.8828C52.5519 20.8516 52.7179 20.8086 52.8156 20.7539C52.9171 20.6953 53.0011 20.5977 53.0675 20.4609C53.1105 20.3711 53.1398 20.2363 53.1554 20.0566C53.1749 19.873 53.1847 19.6113 53.1847 19.2715V18.1875C53.1847 17.7305 53.1691 17.3965 53.1378 17.1855C53.1105 16.9707 53.0558 16.7969 52.9738 16.6641C52.8878 16.5234 52.7667 16.4141 52.6105 16.3359C52.4542 16.2539 52.2784 16.2129 52.0831 16.2129C51.8605 16.2129 51.6515 16.2656 51.4562 16.3711C51.2609 16.4766 51.1066 16.6191 50.9933 16.7988C50.8878 16.959 50.8116 17.1523 50.7648 17.3789C50.7218 17.6016 50.7003 17.8906 50.7003 18.2461V19.3184L50.7062 19.752C50.7062 20.0176 50.7218 20.2129 50.7531 20.3379C50.7843 20.459 50.8448 20.5605 50.9347 20.6426C51.0441 20.748 51.2452 20.8281 51.5382 20.8828V21H48.9542V20.8828C49.1886 20.8516 49.3566 20.8086 49.4581 20.7539C49.5597 20.6953 49.6417 20.5977 49.7042 20.4609C49.7472 20.3711 49.7765 20.2363 49.7921 20.0566C49.8116 19.873 49.8214 19.6094 49.8214 19.2656V17.8184C49.8214 17.416 49.8116 17.1348 49.7921 16.9746C49.7726 16.8105 49.7296 16.6777 49.6632 16.5762C49.5968 16.4668 49.5167 16.3887 49.423 16.3418C49.3292 16.291 49.1945 16.2598 49.0187 16.248V16.1309L50.6241 15.9316ZM60.2218 15.9316C60.2921 16.2051 60.337 16.4766 60.3566 16.7461C60.6027 16.4844 60.8781 16.2832 61.1827 16.1426C61.4913 16.002 61.8116 15.9316 62.1437 15.9316C62.5109 15.9316 62.8175 16.0254 63.0636 16.2129C63.212 16.3262 63.382 16.5234 63.5734 16.8047C63.8702 16.5039 64.1691 16.2832 64.4698 16.1426C64.7706 16.002 65.0948 15.9316 65.4425 15.9316C65.9113 15.9316 66.2921 16.0605 66.5851 16.3184C66.882 16.5723 67.0304 16.9062 67.0304 17.3203V19.3066L67.0363 19.752C67.0363 20.0176 67.0519 20.2129 67.0831 20.3379C67.1144 20.459 67.173 20.5605 67.2589 20.6426C67.3722 20.748 67.5753 20.8281 67.8683 20.8828V21H65.2843V20.8828C65.5187 20.8516 65.6847 20.8086 65.7823 20.7539C65.8839 20.6953 65.9679 20.5977 66.0343 20.4609C66.0773 20.3711 66.1066 20.2363 66.1222 20.0566C66.1417 19.873 66.1515 19.6113 66.1515 19.2715V18.1523C66.1515 17.7188 66.1378 17.4023 66.1105 17.2031C66.0831 17.0039 66.0304 16.834 65.9523 16.6934C65.7687 16.3613 65.4523 16.1953 65.0031 16.1953C64.5187 16.1953 64.1671 16.375 63.9484 16.7344C63.757 17.043 63.6613 17.5234 63.6613 18.1758V19.3066L63.6671 19.752C63.6671 20.0176 63.6827 20.2129 63.714 20.3379C63.7452 20.459 63.8038 20.5605 63.8898 20.6426C63.9991 20.748 64.2023 20.8281 64.4991 20.8828V21H61.9152V20.8828C62.1495 20.8516 62.3156 20.8086 62.4132 20.7539C62.5148 20.6953 62.5988 20.5977 62.6652 20.4609C62.7081 20.3711 62.7374 20.2363 62.7531 20.0566C62.7726 19.873 62.7823 19.6113 62.7823 19.2715V18.1875C62.7823 17.7305 62.7667 17.3965 62.7355 17.1855C62.7081 16.9707 62.6534 16.7969 62.5714 16.6641C62.4855 16.5234 62.3644 16.4141 62.2081 16.3359C62.0519 16.2539 61.8761 16.2129 61.6808 16.2129C61.4581 16.2129 61.2491 16.2656 61.0538 16.3711C60.8585 16.4766 60.7042 16.6191 60.5909 16.7988C60.4855 16.959 60.4093 17.1523 60.3624 17.3789C60.3195 17.6016 60.298 17.8906 60.298 18.2461V19.3184L60.3038 19.752C60.3038 20.0176 60.3195 20.2129 60.3507 20.3379C60.382 20.459 60.4425 20.5605 60.5323 20.6426C60.6417 20.748 60.8429 20.8281 61.1359 20.8828V21H58.5519V20.8828C58.7863 20.8516 58.9542 20.8086 59.0558 20.7539C59.1573 20.6953 59.2394 20.5977 59.3019 20.4609C59.3448 20.3711 59.3741 20.2363 59.3898 20.0566C59.4093 19.873 59.4191 19.6094 59.4191 19.2656V17.8184C59.4191 17.416 59.4093 17.1348 59.3898 16.9746C59.3702 16.8105 59.3273 16.6777 59.2609 16.5762C59.1945 16.4668 59.1144 16.3887 59.0206 16.3418C58.9269 16.291 58.7921 16.2598 58.6163 16.248V16.1309L60.2218 15.9316ZM69.3859 17.8125C69.3702 18.0039 69.3624 18.1426 69.3624 18.2285C69.3624 18.5684 69.4113 18.9004 69.5089 19.2246C69.6105 19.5488 69.7472 19.8184 69.9191 20.0332C70.0948 20.252 70.3116 20.4238 70.5695 20.5488C70.8312 20.6738 71.1046 20.7363 71.3898 20.7363C71.6007 20.7363 71.7999 20.7012 71.9874 20.6309C72.1788 20.5605 72.337 20.4629 72.462 20.3379C72.6027 20.2012 72.7238 19.9824 72.8253 19.6816L72.9425 19.7227C72.8409 20.1797 72.6222 20.5254 72.2863 20.7598C71.9542 20.9902 71.5109 21.1055 70.9562 21.1055C70.4757 21.1055 70.0636 21.0293 69.7198 20.877C69.3761 20.7246 69.0851 20.4902 68.8468 20.1738C68.5148 19.7324 68.3488 19.1895 68.3488 18.5449C68.3488 17.666 68.6632 16.9766 69.2921 16.4766C69.7491 16.1133 70.2706 15.9316 70.8566 15.9316C71.1691 15.9316 71.4581 15.9883 71.7238 16.1016C71.9894 16.2109 72.214 16.3711 72.3976 16.582C72.6827 16.9102 72.8253 17.3203 72.8253 17.8125H69.3859ZM71.9523 17.584C71.9249 17.1934 71.8527 16.8926 71.7355 16.6816C71.63 16.4902 71.4894 16.3398 71.3136 16.2305C71.1378 16.1172 70.9503 16.0605 70.7511 16.0605C70.4152 16.0605 70.1202 16.2051 69.8663 16.4941C69.6163 16.7832 69.4679 17.1465 69.421 17.584H71.9523ZM75.2335 16.834C75.3741 16.5879 75.5323 16.4023 75.7081 16.2773C76.0323 16.0469 76.4015 15.9316 76.8156 15.9316C77.0695 15.9316 77.2628 15.9883 77.3956 16.1016C77.5167 16.2031 77.5773 16.3281 77.5773 16.4766C77.5773 16.5859 77.5402 16.6758 77.4659 16.7461C77.3956 16.8164 77.3038 16.8516 77.1906 16.8516C77.0577 16.8516 76.9425 16.7969 76.8448 16.6875L76.6632 16.4883C76.5187 16.3359 76.3488 16.2598 76.1534 16.2598C75.8878 16.2598 75.6808 16.4316 75.5323 16.7754C75.3839 17.1191 75.3097 17.5977 75.3097 18.2109V19.3066L75.3156 19.752C75.3156 20.0176 75.3312 20.2129 75.3624 20.3379C75.3937 20.459 75.4542 20.5605 75.5441 20.6426C75.6534 20.748 75.8546 20.8281 76.1476 20.8828V21H73.5636V20.8828C73.798 20.8516 73.9659 20.8086 74.0675 20.7539C74.1691 20.6953 74.2511 20.5977 74.3136 20.4609C74.3566 20.3711 74.3859 20.2363 74.4015 20.0566C74.421 19.873 74.4308 19.6094 74.4308 19.2656V17.8184C74.4308 17.416 74.421 17.1348 74.4015 16.9746C74.382 16.8105 74.339 16.6777 74.2726 16.5762C74.2062 16.4668 74.1261 16.3887 74.0323 16.3418C73.9386 16.291 73.8038 16.2598 73.6281 16.248V16.1309L75.1339 15.9199C75.2003 16.2754 75.2335 16.5801 75.2335 16.834ZM37.0187 33.9824L37.0363 31.5625H37.171C37.3351 32.1797 37.5304 32.666 37.757 33.0215C38.1827 33.6777 38.7179 34.0059 39.3624 34.0059C39.8116 34.0059 40.1827 33.8555 40.4757 33.5547C40.7687 33.2539 40.9152 32.873 40.9152 32.4121C40.9152 32.2129 40.882 32.0098 40.8156 31.8027C40.7531 31.5957 40.6671 31.418 40.5577 31.2695C40.4445 31.1172 40.2843 30.9707 40.0773 30.8301C39.8741 30.6895 39.5616 30.5117 39.1398 30.2969C38.7687 30.1094 38.4835 29.9512 38.2843 29.8223C38.089 29.6934 37.9308 29.5625 37.8097 29.4297C37.4738 29.0625 37.3058 28.6152 37.3058 28.0879C37.3058 27.7637 37.3702 27.4512 37.4991 27.1504C37.632 26.8496 37.8156 26.5918 38.0499 26.377C38.464 25.9941 38.9542 25.8027 39.5206 25.8027C39.7042 25.8027 39.8741 25.8223 40.0304 25.8613C40.1866 25.8965 40.3956 25.9688 40.6573 26.0781C40.8527 26.1562 40.9855 26.207 41.0558 26.2305C41.1261 26.25 41.1886 26.2598 41.2433 26.2598C41.38 26.2598 41.4718 26.1602 41.5187 25.9609H41.6534L41.6945 28.2871H41.5597C41.4542 27.916 41.3624 27.6328 41.2843 27.4375C41.2101 27.2383 41.1202 27.0547 41.0148 26.8867C40.8234 26.582 40.6124 26.3574 40.382 26.2129C40.1515 26.0645 39.8859 25.9902 39.5851 25.9902C39.1476 25.9902 38.8019 26.1387 38.548 26.4355C38.4425 26.5566 38.3585 26.6992 38.296 26.8633C38.2374 27.0273 38.2081 27.1914 38.2081 27.3555C38.2081 28.0078 38.6281 28.5332 39.4679 28.9316L40.2941 29.3301C40.9308 29.6309 41.3898 29.9629 41.671 30.3262C41.9913 30.7324 42.1515 31.2051 42.1515 31.7441C42.1515 32.1035 42.0792 32.4473 41.9347 32.7754C41.7316 33.2324 41.4269 33.5859 41.0206 33.8359C40.6144 34.082 40.1359 34.2051 39.5851 34.2051C39.0812 34.2051 38.5968 34.1055 38.132 33.9062C37.8898 33.8008 37.7452 33.7402 37.6984 33.7246C37.6515 33.709 37.5988 33.7012 37.5402 33.7012C37.3527 33.7012 37.2238 33.7949 37.1534 33.9824H37.0187ZM47.1964 32.8926L47.3136 32.9336C47.1769 33.3477 46.9679 33.6465 46.6866 33.8301C46.4054 34.0137 46.0187 34.1055 45.5265 34.1055C44.7374 34.1055 44.1183 33.8711 43.6691 33.4023C43.2316 32.9414 43.0128 32.3594 43.0128 31.6562C43.0128 31.3125 43.0734 30.9727 43.1945 30.6367C43.3156 30.3008 43.4816 30.0137 43.6925 29.7754C43.9308 29.502 44.2218 29.293 44.5656 29.1484C44.9132 29.0039 45.2921 28.9316 45.7023 28.9316C46.2687 28.9316 46.712 29.0586 47.0323 29.3125C47.2277 29.4688 47.3253 29.6406 47.3253 29.8281C47.3253 29.9531 47.2843 30.0586 47.2023 30.1445C47.1202 30.2266 47.0206 30.2676 46.9034 30.2676C46.6495 30.2676 46.462 30.082 46.3409 29.7109C46.2863 29.5391 46.2413 29.4219 46.2062 29.3594C46.1749 29.2969 46.1281 29.2422 46.0656 29.1953C45.9445 29.1055 45.796 29.0605 45.6202 29.0605C45.3898 29.0605 45.1769 29.125 44.9816 29.2539C44.8097 29.3672 44.6632 29.5098 44.5421 29.6816C44.4249 29.8496 44.3214 30.0625 44.2316 30.3203C44.0948 30.7148 44.0265 31.1016 44.0265 31.4805C44.0265 31.8281 44.089 32.168 44.214 32.5C44.339 32.832 44.5089 33.1094 44.7238 33.332C45.0597 33.6836 45.4542 33.8594 45.9073 33.8594C46.2823 33.8594 46.5929 33.7402 46.839 33.502C46.964 33.377 47.0831 33.1738 47.1964 32.8926ZM49.5519 25.7676V29.7812C49.6886 29.6133 49.8097 29.4824 49.9152 29.3887C50.0206 29.2949 50.1476 29.2129 50.296 29.1426C50.5812 29.002 50.9054 28.9316 51.2687 28.9316C51.7296 28.9316 52.1105 29.0234 52.4113 29.207C52.6261 29.3438 52.7726 29.5117 52.8507 29.7109C52.9327 29.9062 52.9738 30.2012 52.9738 30.5957V32.3066L52.9796 32.752C52.9796 33.0176 52.9952 33.2129 53.0265 33.3379C53.0577 33.459 53.1183 33.5605 53.2081 33.6426C53.3175 33.748 53.5187 33.8281 53.8116 33.8828V34H51.2277V33.8828C51.4347 33.8555 51.5812 33.8223 51.6671 33.7832C51.757 33.7441 51.837 33.6777 51.9073 33.584C51.9777 33.4863 52.0265 33.3535 52.0538 33.1855C52.0812 33.0176 52.0948 32.7695 52.0948 32.4414V30.584C52.0948 30.3027 52.0734 30.0801 52.0304 29.916C51.9874 29.752 51.9152 29.6094 51.8136 29.4883C51.6144 29.2578 51.3331 29.1426 50.9698 29.1426C50.0245 29.1426 49.5519 29.8887 49.5519 31.3809V32.3184L49.5577 32.752C49.5577 33.0176 49.5734 33.2129 49.6046 33.3379C49.6359 33.459 49.6964 33.5605 49.7863 33.6426C49.8956 33.748 50.0968 33.8281 50.3898 33.8828V34H47.8058V33.8828C48.0402 33.8516 48.2081 33.8086 48.3097 33.7539C48.4113 33.6953 48.4933 33.5977 48.5558 33.4609C48.5988 33.3711 48.6281 33.2363 48.6437 33.0566C48.6632 32.873 48.673 32.6094 48.673 32.2656V27.666C48.673 27.2676 48.6632 26.9863 48.6437 26.8223C48.6241 26.6582 48.5812 26.5254 48.5148 26.4238C48.4484 26.3145 48.3683 26.2363 48.2745 26.1895C48.1808 26.1426 48.046 26.1133 47.8702 26.1016V25.9785L49.5519 25.7676ZM54.298 31.5273C54.298 30.8945 54.5323 30.3301 55.0011 29.834C55.5714 29.2324 56.2531 28.9316 57.046 28.9316C57.839 28.9316 58.5187 29.2324 59.0851 29.834C59.5538 30.334 59.7882 30.9004 59.7882 31.5332C59.7882 32.1582 59.5656 32.7148 59.1202 33.2031C58.5734 33.8047 57.882 34.1055 57.046 34.1055C56.2101 34.1055 55.5167 33.8047 54.9659 33.2031C54.7511 32.9688 54.5851 32.707 54.4679 32.418C54.3546 32.1289 54.298 31.832 54.298 31.5273ZM55.3644 31.4629C55.3644 32.1426 55.5167 32.7188 55.8214 33.1914C56.1652 33.7188 56.5851 33.9824 57.0812 33.9824C57.2921 33.9824 57.4972 33.9238 57.6964 33.8066C57.8956 33.6895 58.0675 33.5254 58.212 33.3145C58.3644 33.0957 58.4874 32.8223 58.5812 32.4941C58.6749 32.1621 58.7218 31.8418 58.7218 31.5332C58.7218 31.2129 58.671 30.8906 58.5695 30.5664C58.4718 30.2383 58.339 29.957 58.171 29.7227C57.8507 29.2812 57.4581 29.0605 56.9933 29.0605C56.5519 29.0605 56.171 29.293 55.8507 29.7578C55.5265 30.2227 55.3644 30.791 55.3644 31.4629ZM60.5089 31.5273C60.5089 30.8945 60.7433 30.3301 61.212 29.834C61.7823 29.2324 62.464 28.9316 63.257 28.9316C64.0499 28.9316 64.7296 29.2324 65.296 29.834C65.7648 30.334 65.9991 30.9004 65.9991 31.5332C65.9991 32.1582 65.7765 32.7148 65.3312 33.2031C64.7843 33.8047 64.0929 34.1055 63.257 34.1055C62.421 34.1055 61.7277 33.8047 61.1769 33.2031C60.962 32.9688 60.796 32.707 60.6788 32.418C60.5656 32.1289 60.5089 31.832 60.5089 31.5273ZM61.5753 31.4629C61.5753 32.1426 61.7277 32.7188 62.0323 33.1914C62.3761 33.7188 62.796 33.9824 63.2921 33.9824C63.5031 33.9824 63.7081 33.9238 63.9073 33.8066C64.1066 33.6895 64.2784 33.5254 64.423 33.3145C64.5753 33.0957 64.6984 32.8223 64.7921 32.4941C64.8859 32.1621 64.9327 31.8418 64.9327 31.5332C64.9327 31.2129 64.882 30.8906 64.7804 30.5664C64.6827 30.2383 64.5499 29.957 64.382 29.7227C64.0616 29.2812 63.6691 29.0605 63.2042 29.0605C62.7628 29.0605 62.382 29.293 62.0616 29.7578C61.7374 30.2227 61.5753 30.791 61.5753 31.4629ZM66.5851 25.9785L68.2667 25.7676V32.3066L68.2726 32.752C68.2726 33.0176 68.2882 33.2129 68.3195 33.3379C68.3507 33.459 68.4113 33.5605 68.5011 33.6426C68.6105 33.748 68.8116 33.8281 69.1046 33.8828V34H66.5206V33.8828C66.755 33.8516 66.923 33.8086 67.0245 33.7539C67.1261 33.6953 67.2081 33.5977 67.2706 33.4609C67.3136 33.3711 67.3429 33.2363 67.3585 33.0566C67.3781 32.873 67.3878 32.6094 67.3878 32.2656V27.666C67.3878 27.2676 67.3781 26.9863 67.3585 26.8223C67.339 26.6582 67.296 26.5254 67.2296 26.4238C67.1632 26.3145 67.0831 26.2363 66.9894 26.1895C66.8956 26.1426 66.7609 26.1133 66.5851 26.1016V25.9785Z" fill="white"></path>
        </svg>