<svg width="24" height="25" viewBox="0 0 24 25" fill="none" xmlns="http://www.w3.org/2000/svg">
<path d="M22.46 6.4209C21.69 6.7709 20.86 7.0009 20 7.1109C20.88 6.5809 21.56 5.7409 21.88 4.7309C21.05 5.2309 20.13 5.5809 19.16 5.7809C18.37 4.9209 17.26 4.4209 16 4.4209C13.65 4.4209 11.73 6.3409 11.73 8.7109C11.73 9.0509 11.77 9.3809 11.84 9.6909C8.28004 9.5109 5.11004 7.8009 3.00004 5.2109C2.63004 5.8409 2.42004 6.5809 2.42004 7.3609C2.42004 8.8509 3.17004 10.1709 4.33004 10.9209C3.62004 10.9209 2.96004 10.7209 2.38004 10.4209C2.38004 10.4209 2.38004 10.4209 2.38004 10.4509C2.38004 12.5309 3.86004 14.2709 5.82004 14.6609C5.46004 14.7609 5.08004 14.8109 4.69004 14.8109C4.42004 14.8109 4.15004 14.7809 3.89004 14.7309C4.43004 16.4209 6.00004 17.6809 7.89004 17.7109C6.43004 18.8709 4.58004 19.5509 2.56004 19.5509C2.22004 19.5509 1.88004 19.5309 1.54004 19.4909C3.44004 20.7109 5.70004 21.4209 8.12004 21.4209C16 21.4209 20.33 14.8809 20.33 9.2109C20.33 9.0209 20.33 8.8409 20.32 8.6509C21.16 8.0509 21.88 7.2909 22.46 6.4209Z" fill="#FECC47"></path>
</svg>
